<?xml version="1.0" encoding="utf-8"?>
<!-- Generator: Adobe Illustrator 25.4.1, SVG Export Plug-In . SVG Version: 6.00 Build 0)  -->
<svg version="1.1" id="Capa_1" xmlns="http://www.w3.org/2000/svg" xmlns:xlink="http://www.w3.org/1999/xlink" x="0px" y="0px"
	 viewBox="0 0 512 512" style="enable-background:new 0 0 512 512;" xml:space="preserve">
<style type="text/css">
	.st0{fill:none;}
	.st1{fill:#36A77F;}
	.st2{fill:#E7AE4C;}
	.st3{fill:#FFFFFF;}
</style>
<g>
	<g>
		<polygon class="st0" points="226.4,421.7 220.3,421.7 216.1,425.9 222.2,425.9 		"/>
		<polygon class="st0" points="213.4,428.6 208.7,433.3 214.9,433.3 219.6,428.6 		"/>
		<polygon class="st0" points="223.3,428.6 218.6,433.3 224.5,433.3 229.2,428.6 		"/>
		<path class="st0" d="M428.5,172.5c1.7,0.1,3.3,0.2,4.9,0.4C431.8,172.8,430.2,172.6,428.5,172.5z"/>
		<polygon class="st0" points="269.9,433.3 276.1,433.3 271.3,428.6 265.2,428.6 		"/>
		<path class="st0" d="M145.9,315.9c0.4,0,0.7,0.1,1.1,0.1C146.6,316,146.2,316,145.9,315.9z"/>
		<path class="st0" d="M454.1,180.2c0.7,0.7,1.4,1.4,2,2.1C455.5,181.6,454.8,180.9,454.1,180.2z"/>
		<polygon class="st0" points="262.5,425.9 268.7,425.9 264.5,421.7 258.3,421.7 		"/>
		<path class="st0" d="M133.9,313.2c0.3,0.1,0.5,0.2,0.8,0.3C134.4,313.4,134.1,313.3,133.9,313.2z"/>
		<path class="st0" d="M131.7,312.2c0.2,0.1,0.4,0.2,0.6,0.3C132.1,312.4,131.9,312.3,131.7,312.2z"/>
		<path class="st0" d="M136.4,314.1c0.2,0.1,0.4,0.1,0.7,0.2C136.9,314.2,136.6,314.2,136.4,314.1z"/>
		<path class="st0" d="M139.8,315c0.1,0,0.3,0.1,0.4,0.1C140.1,315,139.9,315,139.8,315z"/>
		<polygon class="st0" points="228.2,433.3 235.5,433.3 235.5,432.4 235.5,428.6 232.9,428.6 		"/>
		<path class="st0" d="M142.7,315.5c0.3,0.1,0.7,0.1,1,0.1C143.4,315.6,143,315.6,142.7,315.5z"/>
		<path class="st0" d="M416,172.5c1.7-0.1,3.3-0.1,5-0.1C419.4,172.4,417.7,172.4,416,172.5z"/>
		<path class="st0" d="M262.8,294.9c2.6-0.9,5.2-1.7,7.8-2.7C268.1,293.1,265.4,294,262.8,294.9z"/>
		<path class="st0" d="M261.4,296.2c-0.9,0.4-1.8,0.7-2.7,1.1C259.6,296.9,260.5,296.5,261.4,296.2z"/>
		<polygon class="st0" points="231.8,425.9 235.5,422.3 235.5,422.2 235.5,421.7 230.2,421.7 226,425.9 		"/>
		<path class="st0" d="M252.2,298.3c-0.9,0.3-1.8,0.6-2.7,0.8v0C250.4,298.9,251.3,298.6,252.2,298.3z"/>
		<path class="st0" d="M395,174.6c1.5-0.2,3-0.4,4.5-0.6C398,174.2,396.5,174.4,395,174.6z"/>
		<path class="st0" d="M220.1,307.2c-1.6,0.4-3.2,0.8-4.7,1.1C217,308,218.5,307.6,220.1,307.2z"/>
		<path class="st0" d="M228.9,305c-2.2,0.6-4.3,1.1-6.5,1.7C224.6,306.1,226.7,305.6,228.9,305z"/>
		<polygon class="st0" points="255.7,419.1 261.8,419.1 257.1,414.3 250.9,414.3 		"/>
		<path class="st0" d="M422.4,172.4c0,0-0.1,0-0.1,0c1.9,0,3.7,0,5.5,0.1C426,172.4,424.2,172.4,422.4,172.4z"/>
		<path class="st0" d="M255,297.4c1.8-0.6,3.5-1.1,5.3-1.7C258.5,296.3,256.8,296.8,255,297.4z"/>
		<path class="st0" d="M409.4,172.9c1.5-0.1,2.9-0.2,4.3-0.3C412.3,172.7,410.9,172.8,409.4,172.9z"/>
		<path class="st0" d="M129.7,311.2c0.1,0,0.1,0.1,0.2,0.1C129.8,311.2,129.8,311.2,129.7,311.2z"/>
		<polygon class="st0" points="254.5,411.7 249.5,406.7 249.5,411.7 		"/>
		<path class="st0" d="M402.4,173.6c1.5-0.2,2.9-0.3,4.3-0.4C405.3,173.3,403.8,173.5,402.4,173.6z"/>
		<path class="st0" d="M439.4,173.8c1.4,0.3,2.8,0.6,4.1,1C442.2,174.4,440.8,174.1,439.4,173.8z"/>
		<path class="st0" d="M427.5,189.2c-0.4-0.9-1-1.7-1.6-2.5C426.6,187.5,427.1,188.3,427.5,189.2z"/>
		<polygon class="st0" points="258.8,425.9 254.6,421.7 249.5,421.7 249.5,422.2 249.5,422.5 252.9,425.9 		"/>
		<path class="st0" d="M211.5,314.7c-0.6,0.2-1.1,0.4-1.7,0.5C210.4,315,210.9,314.9,211.5,314.7z"/>
		<path class="st0" d="M203.2,317.3c-0.8,0.3-1.7,0.5-2.5,0.7C201.5,317.8,202.3,317.5,203.2,317.3z"/>
		<polygon class="st0" points="249.5,416.6 249.5,418.2 249.5,418.4 249.5,418.6 249.5,419.1 252,419.1 		"/>
		<path class="st0" d="M443.7,174.9c1.3,0.4,2.5,0.8,3.6,1.3C446.2,175.7,445,175.3,443.7,174.9z"/>
		<polygon class="st0" points="255.6,428.6 260.3,433.3 266.2,433.3 261.4,428.6 		"/>
		<path class="st0" d="M447.7,176.3c1.1,0.5,2.1,1,3.1,1.5C449.8,177.3,448.8,176.7,447.7,176.3z"/>
		<path class="st0" d="M389.1,177.6c1.9-0.1,3.8-0.1,5.7-0.1C392.9,177.5,391,177.5,389.1,177.6z"/>
		<path class="st0" d="M127.7,309.6c0.1,0.1,0.3,0.3,0.4,0.4C127.9,309.9,127.8,309.7,127.7,309.6z"/>
		<path class="st0" d="M222.1,311.2c-0.7,0.2-1.5,0.5-2.2,0.8C220.6,311.7,221.4,311.4,222.1,311.2z"/>
		<path class="st0" d="M423.7,184.4c0.6,0.5,1.2,1.1,1.7,1.7C424.9,185.5,424.3,184.9,423.7,184.4z"/>
		<polygon class="st0" points="249.5,428.6 249.5,432.4 249.5,433.3 256.6,433.3 251.8,428.6 		"/>
		<path class="st0" d="M451.2,178.1c0.9,0.6,1.7,1.1,2.5,1.8C453,179.2,452.1,178.6,451.2,178.1z"/>
		<path class="st0" d="M231.4,307.9c-0.9,0.3-1.8,0.6-2.7,1C229.6,308.5,230.5,308.2,231.4,307.9z"/>
		<path class="st0" d="M456.3,182.6c0.6,0.8,1.1,1.6,1.5,2.5C457.4,184.3,456.9,183.4,456.3,182.6z"/>
		<path class="st0" d="M132.6,282.2c-1.4,1.6-2.6,3.2-3.7,4.8C130,285.4,131.2,283.8,132.6,282.2z"/>
		<path class="st0" d="M109.8,323.1c-0.2-0.2-0.3-0.4-0.5-0.6C109.5,322.8,109.6,323,109.8,323.1z"/>
		<path class="st0" d="M141.1,329.9c-0.5,0-1,0-1.6,0.1C140,329.9,140.5,329.9,141.1,329.9z"/>
		<path class="st0" d="M114.1,326.4c-0.2-0.1-0.4-0.2-0.5-0.3C113.8,326.2,114,326.3,114.1,326.4z"/>
		<path class="st0" d="M125.1,306.7c0.1,0.2,0.2,0.3,0.3,0.5C125.4,307,125.2,306.8,125.1,306.7z"/>
		<polygon class="st0" points="235.5,419.1 235.5,418.2 235.5,416.4 232.8,419.1 		"/>
		<path class="st0" d="M128.9,287c-1.1,1.6-2,3.1-2.7,4.5C126.9,290,127.8,288.5,128.9,287z"/>
		<path class="st0" d="M111.8,325c-0.2-0.2-0.5-0.4-0.7-0.5C111.3,324.6,111.5,324.8,111.8,325z"/>
		<path class="st0" d="M129.7,329.9c-0.1,0-0.1,0-0.2,0C129.6,329.9,129.6,329.9,129.7,329.9z"/>
		<path class="st0" d="M134.6,330.1c0.3,0,0.6,0,1,0c-0.5,0-1,0-1.5,0C134.3,330.1,134.4,330.1,134.6,330.1z"/>
		<path class="st0" d="M117.7,327.9c-0.2-0.1-0.5-0.2-0.8-0.2C117.2,327.8,117.5,327.8,117.7,327.9z"/>
		<path class="st0" d="M125.3,329.5c-0.4-0.1-0.8-0.1-1.2-0.2C124.5,329.4,124.9,329.5,125.3,329.5z"/>
		<path class="st0" d="M121.4,328.9c-0.4-0.1-0.8-0.2-1.2-0.3C120.6,328.7,121,328.8,121.4,328.9z"/>
		<path class="st0" d="M212.9,309c-1.5,0.3-3,0.7-4.4,1C209.9,309.6,211.4,309.3,212.9,309z"/>
		<path class="st0" d="M434.3,173c1.5,0.2,3,0.4,4.4,0.7C437.3,173.4,435.8,173.2,434.3,173z"/>
		<path class="st0" d="M242.3,202c3,0,5.4-2.4,5.4-5.4c0-3-2.4-5.4-5.4-5.4s-5.4,2.4-5.4,5.4C236.9,199.5,239.4,202,242.3,202z"/>
		<path class="st0" d="M387.1,175.9c1.6-0.3,3.2-0.5,4.8-0.8C390.3,175.3,388.7,175.6,387.1,175.9z"/>
		<path class="st0" d="M280,303c-2-2-4-4.1-6-6.1c0.2-5,0.6-10,0.9-15c0.6-10.1,0.9-20.2,1.6-30.3c0.3-3.6,0.4-7.3,0.7-10.9
			c0.4-6.3,0.5-12.8-0.1-19.1c-0.9-9.3-3.3-18.1-6.2-26.6c-6.7-18.2-15.8-34.1-26.4-48.6c-1.1-1.5-1.7-1.5-2.7,0
			c-3.6,5-7.1,10.1-10.3,15.5c-6.2,10.4-11.9,21.2-15.9,33.3c-0.6,1.8-1.3,3.6-1.9,5.4c-2.7,8.5-4.5,17.2-4.8,26.4
			c-0.2,9.5,0.7,19,1.1,28.5c0.3,5.9,0.6,11.9,1,17.8c0.5,7.9,1.1,15.8,1.3,23.7c-1.1,1.2-2.2,2.4-3.4,3.5
			c8.5-1.9,17.4-4.2,26.6-6.8v-3.4l-5.2-5.2v-8.8c-0.9-0.3-1.6-1.1-1.6-2.1c0-1.3,1-2.3,2.3-2.3c1.3,0,2.3,1,2.3,2.3
			c0,1-0.7,1.9-1.6,2.1v8.2l3.9,3.9v-36.1h4h5.8h4.1v19.8l4.7-4.7v-10.4c-0.9-0.3-1.6-1.1-1.6-2.1c0-1.3,1-2.3,2.3-2.3
			s2.3,1,2.3,2.3c0,1-0.7,1.9-1.6,2.1v10.9l-6,6v15.6c6-1.9,12.1-3.9,18.2-6l6.7,17.1c-8.4,3.7-16.7,7.1-24.9,10.3v6.6
			c0.9-0.4,1.9-0.8,2.8-1.3C261.7,312,271,307.5,280,303z M242.3,187.7c4.9,0,8.8,4,8.8,8.8c0,4.9-4,8.8-8.8,8.8s-8.8-4-8.8-8.8
			C233.5,191.7,237.5,187.7,242.3,187.7z M256.3,236.4h-12.5v8.6h5.7v4.6h-4.1h-5.8h-4v-4.6h5.5v-8.6h-12.5v-2.6h6.5v-12.5h2.6v12.5
			h3.4v-23.9v-1c0.4,0.1,0.8,0.1,1.2,0.1c0.5,0,1-0.1,1.4-0.2v1v23.9h3.4v-12.5h2.6v12.5h6.5V236.4z"/>
		<path class="st0" d="M367.4,179.8c2.9-0.7,5.7-1.3,8.5-1.8C373.1,178.5,370.3,179.1,367.4,179.8z"/>
		<path class="st0" d="M378.5,177.4c1.9-0.4,3.7-0.7,5.5-1.1C382.2,176.7,380.4,177.1,378.5,177.4z"/>
		<path class="st0" d="M132.6,282.2c2.1-2.4,4.5-5,7.2-7.6C137,277.2,134.6,279.8,132.6,282.2z"/>
		<path class="st0" d="M192.8,320.3c0.5-0.1,1-0.3,1.5-0.4C193.8,320,193.3,320.1,192.8,320.3C192.8,320.3,192.8,320.3,192.8,320.3z
			"/>
		<path class="st0" d="M249.5,301L249.5,301c0.8-0.3,1.5-0.6,2.3-0.9C251,300.4,250.2,300.7,249.5,301z"/>
		<path class="st0" d="M423.1,183.9c-0.9-0.6-1.8-1.3-2.8-1.8C421.3,182.6,422.2,183.2,423.1,183.9z"/>
		<path class="st0" d="M415.7,180.2c-1-0.3-2.1-0.6-3.3-0.9C413.6,179.5,414.7,179.8,415.7,180.2z"/>
		<path class="st0" d="M419.7,181.8c-0.9-0.4-1.8-0.8-2.8-1.2C417.9,180.9,418.8,181.3,419.7,181.8z"/>
		<path class="st0" d="M374.2,178.9c-2.2,0.3-4.5,0.6-6.8,0.9C369.8,179.4,372,179.1,374.2,178.9z"/>
		<path class="st0" d="M411.6,179c-1.4-0.3-2.9-0.6-4.5-0.8C408.7,178.4,410.2,178.7,411.6,179z"/>
		<path class="st0" d="M126.7,308.6c-0.1-0.2-0.3-0.3-0.4-0.5C126.4,308.3,126.5,308.5,126.7,308.6z"/>
		<path class="st0" d="M380.8,178.2c-1.5,0.1-3,0.3-4.5,0.5C377.8,178.5,379.3,178.3,380.8,178.2z"/>
		<path class="st0" d="M400.4,177.6c-1.7-0.1-3.5-0.1-5.3-0.2C396.9,177.5,398.7,177.5,400.4,177.6z"/>
		<path class="st0" d="M387.3,177.7c-1.4,0.1-2.8,0.2-4.3,0.3C384.5,177.9,385.9,177.8,387.3,177.7z"/>
		<path class="st0" d="M405.9,178.1c-1.3-0.2-2.6-0.3-3.9-0.4C403.3,177.8,404.6,177.9,405.9,178.1z"/>
		<polygon class="st0" points="235.6,406.4 230.3,411.7 235.6,411.7 		"/>
		<path class="st0" d="M199.4,311.8c-0.4,0.1-0.8,0.1-1.2,0.2c0,0,0,0,0,0C198.6,312,199,311.9,199.4,311.8z"/>
		<path class="st0" d="M229.6,304.8c2-0.5,4-1.1,6-1.6v0C233.6,303.7,231.6,304.3,229.6,304.8z"/>
		<path class="st0" d="M206,310.5c-1.6,0.3-3.2,0.7-4.7,1C202.8,311.1,204.4,310.8,206,310.5z"/>
		<polygon class="st0" points="233.8,414.3 227.7,414.3 222.9,419.1 229.1,419.1 		"/>
		<g>
			<path class="st1" d="M192.6,320.3c0.1,0,0.1,0,0.2-0.1c0,0,0,0,0,0C192.7,320.3,192.7,320.3,192.6,320.3z"/>
			<path class="st1" d="M277.1,221.5c0.6,6.4,0.5,12.8,0.1,19.1c-0.3,3.6-0.4,7.3-0.7,10.9c-0.8,10.1-1,20.2-1.6,30.3
				c-0.3,5-0.7,10-0.9,15c2,2.1,4,4.1,6,6.1c15.7-7.9,30.6-16,44.6-24.2L243.2,56l-91.8,251.2c1.8,0.1,3.6,0.2,5.7,0.2
				c14,0,31.8-2.4,51.9-6.9c1.1-1.2,2.2-2.3,3.4-3.5c-0.3-7.9-0.8-15.8-1.3-23.7c-0.4-5.9-0.7-11.9-1-17.8c-0.4-9.5-1.3-19-1.1-28.5
				c0.2-9.2,2.1-17.9,4.8-26.4c0.6-1.8,1.2-3.6,1.9-5.4c4-12.2,9.7-22.9,15.9-33.3c3.2-5.4,6.7-10.5,10.3-15.5
				c1.1-1.5,1.6-1.5,2.7,0c10.7,14.5,19.8,30.5,26.4,48.6C273.9,203.4,276.3,212.2,277.1,221.5z"/>
			<path class="st1" d="M216.2,364.3c-9.4,4.6-18.8,9.2-28.6,14c0-7.7-0.2-15.1,0.1-22.5c0.3-8,0.7-15.9,1.8-23.8
				c0.1-0.5,0.2-0.9,0.3-1.4c-19.1,5-36.2,7.9-50,8.5l-27.5,75.3h70.1c29.3-2,40.6-40.1,40.8-43.8C221,368,218.4,366.5,216.2,364.3z
				"/>
			<path class="st1" d="M193,313c1.7-0.3,3.5-0.6,5.2-0.9c0,0,0,0,0,0C196.5,312.4,194.7,312.7,193,313z"/>
			<path class="st1" d="M334.4,305.4c-12,6.1-24.5,12-37.3,17.7c-0.6,0.3-1.3,0.6-1.9,0.8c1.6,4.7,2.3,9.8,2.7,15
				c1,12.7,1.2,25.3,1,38.1c0,0.3-0.1,0.6-0.1,1.2c-9.5-4.6-19-9.3-28.5-13.9c-2.3,2.3-4.6,4.7-6.9,7c0.2,3.3,11.6,41.1,40.9,43.1
				h70L334.4,305.4z"/>
		</g>
		<g>
			<polygon class="st2" points="235.5,427.3 235.5,426 232.9,428.6 235.5,428.6 			"/>
			<polygon class="st2" points="182,428.6 209.7,428.6 212.3,425.9 182,425.9 			"/>
			<polygon class="st2" points="222.2,425.9 216.1,425.9 213.4,428.6 219.6,428.6 			"/>
			<polygon class="st2" points="231.8,425.9 226,425.9 223.3,428.6 229.2,428.6 			"/>
			<polygon class="st2" points="275.1,428.6 301.9,428.6 301.9,425.9 272.4,425.9 			"/>
			<polygon class="st2" points="249.5,428.6 251.8,428.6 249.5,426.2 249.5,427.3 			"/>
			<polygon class="st2" points="262.5,425.9 265.2,428.6 271.3,428.6 268.7,425.9 			"/>
			<polygon class="st2" points="261.4,428.6 258.8,425.9 252.9,425.9 255.6,428.6 			"/>
			<polygon class="st2" points="219.2,419.1 198,419.1 198,421.7 216.5,421.7 			"/>
			<polygon class="st2" points="229.1,419.1 222.9,419.1 220.3,421.7 226.4,421.7 			"/>
			<polygon class="st2" points="235.5,419.1 232.8,419.1 230.2,421.7 235.5,421.7 			"/>
			<polygon class="st2" points="261.8,419.1 255.7,419.1 258.3,421.7 264.5,421.7 			"/>
			<polygon class="st2" points="286,421.7 286,419.1 265.6,419.1 268.2,421.7 			"/>
			<polygon class="st2" points="252,419.1 249.5,419.1 249.5,421.7 254.6,421.7 			"/>
			<polygon class="st2" points="265.2,414.3 265.2,411.7 258.2,411.7 260.8,414.3 			"/>
			<polygon class="st2" points="254.5,411.7 249.5,411.7 249.5,412.8 250.9,414.3 257.1,414.3 			"/>
			<polygon class="st2" points="235.6,412.6 235.6,411.7 230.3,411.7 227.7,414.3 233.8,414.3 			"/>
			<polygon class="st2" points="226.6,411.7 218.7,411.7 218.7,414.3 223.9,414.3 			"/>
			<rect x="218.7" y="441.6" class="st2" width="46.5" height="2.6"/>
			<rect x="230.4" y="449.9" class="st2" width="23.3" height="2.6"/>
			<path class="st2" d="M242.3,205.4c4.9,0,8.8-4,8.8-8.8c0-4.9-4-8.8-8.8-8.8s-8.8,4-8.8,8.8C233.5,201.4,237.5,205.4,242.3,205.4z
				 M242.3,191.1c3,0,5.4,2.4,5.4,5.4c0,3-2.4,5.4-5.4,5.4s-5.4-2.4-5.4-5.4C236.9,193.6,239.4,191.1,242.3,191.1z"/>
			<path class="st2" d="M254.2,256.9c0.2,0.1,0.4,0.1,0.7,0.1c0.2,0,0.4-0.1,0.7-0.1c0.9-0.3,1.6-1.1,1.6-2.1c0-1.3-1-2.3-2.3-2.3
				s-2.3,1-2.3,2.3C252.6,255.8,253.2,256.7,254.2,256.9z"/>
			<path class="st2" d="M254.2,357.7c0.2,0.1,0.4,0.1,0.7,0.1c0.2,0,0.4-0.1,0.7-0.1c0.9-0.3,1.6-1.1,1.6-2.1c0-1.3-1-2.3-2.3-2.3
				s-2.3,1-2.3,2.3C252.6,356.6,253.2,357.4,254.2,357.7z"/>
			<path class="st2" d="M230.4,276.2c0.2,0.1,0.4,0.1,0.7,0.1c0.2,0,0.4-0.1,0.7-0.1c0.9-0.3,1.6-1.1,1.6-2.1c0-1.3-1-2.3-2.3-2.3
				c-1.3,0-2.3,1-2.3,2.3C228.7,275.1,229.4,276,230.4,276.2z"/>
			<path class="st2" d="M376.6,244.3l0.1-0.1c9.2-6.7,16.6-12.8,22.6-18.3c-4.9-9.3-11.5-17.6-19.3-24.5c0,0,0,0,0.1,0
				c-0.3-0.3-0.7-0.5-1-0.8c-1-0.9-2.1-1.8-3.2-2.6c-0.6-0.5-1.2-1-1.8-1.4c-1.7-1.3-3.4-2.5-5.2-3.7c-0.1-0.1-0.2-0.2-0.4-0.2
				c-2.5-1.6-5.1-3-7.7-4.4c-3.7-1.9-7.5-3.5-11.5-4.9c0,0-0.1,0-0.1,0c-6.9-2.3-14.2-3.8-21.7-4.4c0,0,0,0,0,0v0
				c-2.2-0.2-4.4-0.3-6.6-0.3c-7.3,0-14.4,0.9-21.1,2.5l33.7,92.3C349.4,263.8,364,253.9,376.6,244.3L376.6,244.3z"/>
			<path class="st2" d="M409.4,260.9c-18.9,13.4-41.3,27-66,39.9l16.9,46.3c29.2-14.5,49.3-44.7,49.3-79.6
				C409.7,265.3,409.6,263.1,409.4,260.9z"/>
		</g>
		<g>
			<path class="st3" d="M241.1,245.1h-5.5v4.6h4h5.8h4.1v-4.6h-5.7v-8.6h12.5v-2.6h-6.5v-12.5h-2.6v12.5h-3.4v-23.9v-1
				c-0.5,0.1-0.9,0.2-1.4,0.2c-0.4,0-0.8-0.1-1.2-0.1v1v23.9h-3.4v-12.5h-2.6v12.5h-6.5v2.6h12.5V245.1z"/>
			<path class="st3" d="M249.5,289.5v-15.6l6-6v-10.9c-0.2,0.1-0.4,0.1-0.7,0.1c-0.2,0-0.4-0.1-0.7-0.1v10.4l-4.7,4.7v-19.8h-4.1
				h-5.8h-4v36.1l-3.9-3.9v-8.2c-0.2,0.1-0.4,0.1-0.7,0.1c-0.2,0-0.4-0.1-0.7-0.1v8.8l5.2,5.2v3.4
				C240.1,292.4,244.8,291,249.5,289.5z"/>
			<path class="st3" d="M235.6,323.7c4.6-2,9.2-4.1,13.9-6.2v-6.6c-4.7,1.8-9.3,3.6-13.9,5.2V323.7z"/>
			<path class="st3" d="M275.1,428.6l-2.6-2.6l-4.2-4.2l-2.6-2.6l-4.7-4.7l-2.6-2.6l-8.7-8.7v-6.4v-21.9l6-6v-10.9
				c-0.2,0.1-0.4,0.1-0.7,0.1c-0.2,0-0.4-0.1-0.7-0.1v10.4l-4.7,4.7v-8.3v-7v-5.8v-7.5v-2c-4.6,1.7-9.3,3.3-13.9,4.9v4.5v5.8v7v32.1
				v6.1l-9,9l-2.6,2.6l-4.7,4.7l-2.6,2.6l-4.2,4.2l-2.6,2.6l-4.7,4.7h-4.3v2.6h5.4h9.9h19.5h1.7h2.4h5.8h3.5h0.6h19.3h9.9h4.6v-2.6
				h-3.5L275.1,428.6z M213.4,428.6l2.6-2.6l4.2-4.2l2.6-2.6l4.7-4.7l2.6-2.6l5.3-5.3v5.3v0.9l-1.8,1.8l-4.7,4.7l-2.6,2.6l-4.2,4.2
				l-2.6,2.6l-4.7,4.7h-6.2L213.4,428.6z M223.3,428.6l2.6-2.6l4.2-4.2l2.6-2.6l2.7-2.7v1.8v0.9v2.6v0.5v0l-3.7,3.7l-2.6,2.6
				l-4.7,4.7h-5.9L223.3,428.6z M235.5,432.4v0.9h-7.3l4.7-4.7l2.6-2.6v1.3v1.3V432.4z M249.5,433.3l0-0.9l0-3.8l0-1.3l0-1.1
				l2.3,2.3l4.7,4.7H249.5z M260.3,433.3l-4.7-4.7l-2.6-2.6l-3.4-3.4l0-0.3l0-0.5l0-2.6l0-0.5l0-0.2v-0.2v-1.6l2.5,2.5l2.6,2.6
				l4.2,4.2l2.6,2.6l4.7,4.7H260.3z M269.9,433.3l-4.7-4.7l-2.6-2.6l-4.2-4.2l-2.6-2.6l-4.7-4.7l-1.5-1.5v-1.1v-5l5,5l2.6,2.6
				l4.7,4.7l2.6,2.6l4.2,4.2l2.6,2.6l4.7,4.7H269.9z"/>
			<path class="st3" d="M198,347.8c-0.3,0-0.6-0.2-0.7-0.5c-0.1-0.4,0.1-0.8,0.4-0.9c14.1-5,28.8-10.9,43.9-17.3
				c4.3-1.8,8.8-3.8,13.8-6.1l2.5-1.1c1.4-0.6,2.7-1.2,4.1-1.8c10.1-4.6,20.3-9.5,30.4-14.6c14.4-7.3,28.3-14.8,41.3-22.4
				c3-1.7,5.9-3.5,8.8-5.2c17.1-10.4,32.4-20.7,45.4-30.6c7.9-5.7,15-11.4,21.2-17c20.2-18.1,28.9-33.5,24.6-43.4
				c0-0.1-0.1-0.2-0.2-0.3c-0.1-0.1-0.1-0.2-0.2-0.3c-0.1-0.2-0.1-0.3-0.1-0.4c0-0.1,0-0.1-0.1-0.2c-0.3-0.8-0.8-1.5-1.5-2.4
				c-0.1-0.2-0.3-0.3-0.4-0.5c-0.6-0.7-1.1-1.2-1.7-1.7l-0.2-0.2c-0.1-0.1-0.2-0.2-0.4-0.3c-0.9-0.7-1.8-1.2-2.7-1.7
				c-0.1-0.1-0.2-0.1-0.3-0.1l-0.3-0.1c-0.9-0.4-1.8-0.8-2.8-1.2c-0.4-0.1-0.7-0.3-1.1-0.4c-1-0.3-2.1-0.6-3.2-0.9l-0.4-0.1
				c-0.1,0-0.3-0.1-0.4-0.1c-1.3-0.3-2.8-0.6-4.5-0.8c-0.2,0-0.5-0.1-0.7-0.1l-0.5-0.1c-1.3-0.2-2.6-0.3-3.9-0.4
				c-0.5,0-1-0.1-1.5-0.1c-1.9-0.1-3.6-0.1-5.3-0.2l-0.2-0.7v0.7c-1.8,0-3.6,0-5.7,0.1c-0.4,0-0.8,0-1.2,0.1l-0.6,0
				c-1.4,0.1-2.8,0.2-4.3,0.3c-0.7,0.1-1.4,0.1-2.2,0.2c-1.5,0.1-3,0.3-4.5,0.5l-0.7,0.1c-0.5,0.1-0.9,0.1-1.4,0.2
				c-2.2,0.3-4.5,0.6-6.8,0.9c-0.4,0.1-0.7-0.2-0.8-0.6c-0.1-0.4,0.2-0.7,0.5-0.8c2.9-0.7,5.7-1.3,8.5-1.8c0.5-0.1,1.1-0.2,1.6-0.3
				l1.1-0.2c1.9-0.4,3.7-0.7,5.5-1.1c0.7-0.1,1.4-0.2,2.1-0.4l1-0.2c1.6-0.3,3.2-0.5,4.8-0.8c1-0.2,2.1-0.3,3.1-0.5
				c1.5-0.2,3-0.4,4.5-0.6c1-0.1,2-0.2,3-0.4c1.5-0.2,2.9-0.3,4.3-0.4l0.9-0.1c0.6-0.1,1.2-0.1,1.8-0.2c1.5-0.1,2.9-0.2,4.3-0.3
				l0.8,0c0.5,0,1.1-0.1,1.6-0.1c1.7-0.1,3.4-0.1,5-0.1l0.5,0c0.3,0,0.6,0,0.9,0c1.7,0,3.5,0,5.4,0.1l0.8,0c1.6,0.1,3.3,0.2,4.9,0.4
				l0.9,0.1c1.6,0.2,3.1,0.4,4.5,0.7l0.7,0.1c1.6,0.3,3,0.6,4.2,1l0.2,0.1c1.2,0.4,2.5,0.8,3.7,1.3l0.4,0.2c1.1,0.4,2.1,1,3.1,1.6
				l0.5,0.3c0.9,0.6,1.8,1.2,2.6,1.8l0.3,0.3c0.9,0.8,1.6,1.5,2.1,2.3l0.1,0.2c0.7,1,1.3,1.9,1.6,2.8l0,0
				c6.3,14.3-11.9,38.5-50,66.3c-18.9,13.8-42.4,28.2-67.9,41.6c-3,1.6-6,3.1-9,4.7c-12.3,6.2-25,12.3-37.9,18l-2.4,1
				c-13.8,6-27.8,11.7-41.5,16.8c-4.6,1.7-9.2,3.4-13.9,5c-15.4,5.4-30.2,9.9-44,13.5C198.1,347.8,198,347.8,198,347.8z
				 M401.1,172.9c0,0,0.2,0,0.2,0c1.8,0,3.5,0.1,5.4,0.2c0.5,0,1,0.1,1.5,0.1c1.4,0.1,2.7,0.2,4,0.4l0.5,0.1c0.3,0,0.5,0.1,0.8,0.1
				c1.7,0.2,3.2,0.5,4.6,0.8c0.2,0,0.3,0.1,0.5,0.1l0.4,0.1c1.1,0.3,2.3,0.6,3.3,0.9c0.4,0.1,0.8,0.3,1.1,0.4c1,0.4,2,0.8,2.9,1.3
				l0.2,0.1c0.1,0.1,0.3,0.1,0.4,0.2c1,0.5,2,1.1,2.9,1.9c0.2,0.1,0.3,0.2,0.4,0.4l0.2,0.2c0.7,0.6,1.3,1.1,1.8,1.7
				c0.3,0.3,0.4,0.5,0.6,0.7c0.7,1,1.3,1.8,1.6,2.7c0.1,0.1,0.1,0.2,0.1,0.4c0.1,0.2,0.1,0.3,0.2,0.3c0.1,0.2,0.2,0.3,0.3,0.5
				c4.7,10.6-3.9,26.2-24.9,45c-6.2,5.6-13.4,11.3-21.3,17c-13,10-28.4,20.3-45.5,30.7c-2.9,1.8-5.8,3.5-8.8,5.3
				c-13,7.6-26.9,15.2-41.4,22.5c-10.1,5.1-20.3,10-30.4,14.6c-1.4,0.6-2.8,1.2-4.1,1.8l-2.5,1.1c-5,2.3-9.6,4.2-13.9,6.1
				c-9.4,4-18.7,7.8-27.8,11.3c8.8-2.6,17.9-5.6,27.3-8.8c4.6-1.6,9.3-3.3,13.8-5c13.7-5.1,27.7-10.7,41.5-16.8l2.4-1
				c12.9-5.7,25.6-11.7,37.8-18c3-1.5,6.1-3.1,9-4.7c25.4-13.4,48.9-27.7,67.7-41.5c37.5-27.3,55.6-50.9,49.5-64.5
				c-0.3-0.8-0.8-1.6-1.4-2.4c0,0-0.1-0.2-0.1-0.2c-0.6-0.8-1.2-1.5-2-2.1l-0.4-0.3c-0.7-0.6-1.5-1.2-2.4-1.7l-0.5-0.3
				c-1-0.6-2-1.1-3-1.5l-0.2-0.1c0,0-0.2-0.1-0.2-0.1c-1.1-0.5-2.3-0.9-3.5-1.2l0-0.8l-0.2,0.7c-1.2-0.3-2.5-0.6-4.1-1l-0.7-0.1
				c-1.3-0.3-2.8-0.5-4.4-0.7l-0.8-0.1c-1.6-0.2-3.2-0.3-4.8-0.4l-0.8,0c-1.9-0.1-3.7-0.1-5.4-0.1c-0.2,0-0.5,0-0.7,0l-0.5,0
				c-1.6,0-3.3,0.1-4.9,0.1c-0.5,0-1,0.1-1.5,0.1l-0.8,0c-1.4,0.1-2.8,0.2-4.3,0.3c-0.6,0.1-1.2,0.1-1.8,0.2l-0.9,0.1
				c-1.4,0.1-2.8,0.3-4.3,0.4c-1,0.1-2,0.2-2.9,0.4c-1.5,0.2-3,0.4-4.5,0.6c-1,0.1-2,0.3-3.1,0.5c-1.6,0.2-3.2,0.5-4.8,0.8l-1,0.2
				c-0.7,0.1-1.4,0.2-2.1,0.4c-0.3,0-0.5,0.1-0.8,0.1c1.3-0.1,2.6-0.2,3.8-0.3l0.6,0c0.4,0,0.8-0.1,1.2-0.1
				C397.5,172.9,399.3,172.9,401.1,172.9z"/>
			<path class="st3" d="M129.4,332.3c-1.5,0-3,0-4.4-0.1l-0.2-0.7l0,0.7c-1.4-0.1-2.7-0.2-4.2-0.4c-0.3,0-0.6-0.1-0.8-0.1l-0.3-0.1
				c-1-0.1-1.9-0.3-2.8-0.5c-0.4-0.1-0.8-0.2-1.2-0.3c-0.9-0.2-1.8-0.5-2.6-0.7l-0.3-0.1c-0.2,0-0.3-0.1-0.5-0.2
				c-1-0.4-2-0.8-2.9-1.3c-0.1-0.1-0.3-0.1-0.4-0.2l-0.2-0.1c-0.7-0.4-1.3-0.8-1.9-1.2c-0.2-0.2-0.5-0.4-0.7-0.6
				c-0.5-0.4-0.9-0.9-1.4-1.3l-0.1-0.1c-0.1-0.2-0.3-0.3-0.4-0.5c-0.6-0.8-1-1.5-1.4-2.2c-5.1-11.1,8.3-29.6,37.7-52
				c0.3-0.2,0.7-0.2,1,0.1c0.2,0.3,0.2,0.7-0.1,1c-2.1,1.8-4,3.5-5.8,5.2c-2.7,2.6-5.1,5.1-7.1,7.5c-1.4,1.6-2.6,3.2-3.6,4.7
				c-1.1,1.5-2,3-2.7,4.5c-2.6,5-3.2,9.4-1.8,13c0.2,0.5,0.4,1,0.8,1.5c0.1,0.1,0.1,0.2,0.2,0.3c0,0,0.1,0.1,0.1,0.1
				c0.2,0.3,0.5,0.7,0.7,1c0.1,0.1,0.3,0.3,0.4,0.5c0.3,0.3,0.6,0.6,0.9,0.9l0.2,0.2c0.1,0.1,0.1,0.1,0.2,0.2c0.5,0.4,1,0.8,1.6,1.2
				l-0.2,0.7l0.4-0.6c0.5,0.3,1.1,0.6,1.7,0.9c0.2,0.1,0.3,0.1,0.5,0.2l0.2,0.1c0.5,0.2,1,0.4,1.5,0.6l0.8,0.3
				c0.6,0.2,1.2,0.4,1.8,0.6l0.7,0.2c0.8,0.2,1.7,0.5,2.6,0.7l0.4,0.1c0.8,0.2,1.6,0.3,2.5,0.5l1,0.1c0.7,0.1,1.4,0.2,2.2,0.3
				c0.4,0,0.7,0.1,1.1,0.1c0.4,0,0.7,0.1,1.1,0.1l2.3,0.2c1.2,0.1,2.3,0.1,3.6,0.2l1.1,0c0.7,0,1.3,0,2,0l0.5,0c1.2,0,2.5,0,3.8-0.1
				l1,0c1.7-0.1,3.4-0.2,5.1-0.3l1.4-0.1c1.3-0.1,2.6-0.2,4-0.3c0.6-0.1,1.3-0.1,2-0.2c1.2-0.1,2.5-0.3,3.7-0.4l2.1-0.3
				c1.3-0.2,2.6-0.4,4-0.5l2-0.3c1.7-0.3,3.4-0.5,5.1-0.8l1-0.2c1.7-0.3,3.5-0.6,5.2-0.9l3-0.6c1.6-0.3,3.1-0.6,4.7-1
				c0.8-0.2,1.6-0.3,2.4-0.5c1.5-0.3,2.9-0.6,4.4-1c0.9-0.2,1.7-0.4,2.6-0.6c1.6-0.4,3.1-0.7,4.7-1.1l2.3-0.6
				c2.1-0.5,4.3-1.1,6.5-1.7l0.7-0.2c1.9-0.5,3.9-1.1,5.9-1.6c0,0,0.1,0,0.1,0l3.7-1c1.7-0.5,3.4-1,5.2-1.5l5-1.5c0,0,0.1,0,0.1,0
				l5.4-1.7c1.8-0.6,3.5-1.1,5.3-1.7l2.5-0.8c2.6-0.9,5.2-1.7,7.8-2.7c0.4-0.1,0.8,0.1,0.9,0.4c0.1,0.4,0,0.8-0.4,0.9
				c-3.1,1.4-6.2,2.7-9.3,4l-2.7,1.1c-2.3,1-4.6,1.9-7,2.8l-2.3,0.9c0,0-0.2,0.1-0.2,0.1c-3,1.2-6,2.4-9,3.5l-1.1,0.4
				c-0.8,0.3-1.5,0.6-2.3,0.9l-2.7,1c-0.9,0.3-1.9,0.7-2.8,1c-0.9,0.3-1.8,0.6-2.7,1c-2.2,0.8-4.4,1.6-6.6,2.3l-2.2,0.8
				c-2.8,1-5.6,1.9-8.4,2.8l-1.7,0.5c-2.2,0.7-4.5,1.4-6.6,2.1l-2.5,0.7c-2.1,0.6-4.3,1.2-6.3,1.8l-1.5,0.4c0,0,0,0,0,0l-0.2-0.7
				l0.1,0.7c-2.7,0.7-5.3,1.4-7.8,2.1l-1.9,0.5c-1.9,0.5-3.9,0.9-5.7,1.4c-0.7,0.2-1.5,0.3-2.2,0.5c-2.1,0.5-4.1,0.9-6.1,1.3
				l-1.1,0.2c-2.3,0.5-4.6,0.9-6.8,1.2l-1.8,0.3c-1.7,0.3-3.3,0.5-4.9,0.7l-1.9,0.3c-2,0.3-3.9,0.5-5.8,0.7L142,331l0.1,0.7
				c-1,0.1-1.9,0.2-2.8,0.2l-1.6,0.1c-0.4,0-0.9,0.1-1.3,0.1c-0.4,0-0.8,0-1.3,0.1l-0.3,0c-1.4,0.1-2.7,0.1-4,0.1L129.4,332.3z
				 M128.7,281.6C109,298.8,100,313.1,104,321.7c0.3,0.6,0.7,1.2,1.2,1.9c0.1,0.1,0.2,0.3,0.3,0.4l0.1,0.2c0.4,0.4,0.8,0.8,1.2,1.2
				c0.2,0.2,0.4,0.3,0.6,0.5c0.5,0.4,1.1,0.8,1.7,1.1l0.2,0.1c0.1,0.1,0.2,0.1,0.3,0.2c0.8,0.4,1.8,0.8,2.7,1.2
				c0.1,0,0.3,0.1,0.4,0.1l0.3,0.1c0.8,0.3,1.6,0.5,2.5,0.7c0.4,0.1,0.8,0.2,1.1,0.3c0.9,0.2,1.7,0.3,2.7,0.5l0.4,0.1
				c0.3,0,0.5,0.1,0.8,0.1c1.5,0.2,2.8,0.3,4.1,0.4l0.2,0.7l0-0.7c1.4,0.1,2.9,0.1,4.4,0.1l1.4,0c1.3,0,2.6,0,3.9-0.1l0.3,0
				c0.4,0,0.8,0,1.2-0.1c0.4,0,0.8-0.1,1.3-0.1l1.6-0.1c0.9-0.1,1.8-0.1,2.7-0.2l0.3,0.7l-0.1-0.7c1.9-0.2,3.8-0.4,5.8-0.7l1.8-0.3
				c1.6-0.2,3.2-0.5,4.9-0.7l1.8-0.3c2.2-0.4,4.4-0.8,6.7-1.2l1.1-0.2c2-0.4,4-0.8,6.1-1.3c0.7-0.2,1.5-0.3,2.2-0.5
				c1.9-0.4,3.8-0.9,5.7-1.4l1.8-0.5c2.5-0.6,5.1-1.3,7.6-2l0.4,0.6l-0.2-0.7l1.5-0.4c2.1-0.6,4.2-1.2,6.3-1.8l2.5-0.7
				c2.2-0.7,4.4-1.3,6.6-2l1.7-0.5c2.8-0.9,5.6-1.8,8.4-2.8l2.2-0.8c2.2-0.8,4.4-1.5,6.6-2.3c0.9-0.3,1.8-0.6,2.7-1
				c0.9-0.3,1.8-0.7,2.8-1l2.7-1c0.8-0.3,1.5-0.6,2.3-0.9l1.1-0.4c3-1.1,6-2.3,9-3.5l0.4,0.6l-0.3-0.7l2.3-0.9
				c0.8-0.3,1.5-0.6,2.3-0.9l-4.1,1.3c0,0-0.1,0-0.1,0l-4.9,1.5c-1.7,0.5-3.5,1-5.2,1.5l-3.6,1c0,0-0.1,0-0.1,0c-2,0.6-4,1.1-6,1.6
				l-0.7,0.2c-2.2,0.6-4.3,1.1-6.5,1.7l-2.3,0.6c-1.6,0.4-3.2,0.8-4.7,1.1c-0.9,0.2-1.7,0.4-2.6,0.6c-1.5,0.3-3,0.7-4.5,1
				c-0.8,0.2-1.6,0.4-2.4,0.5c-1.6,0.3-3.2,0.7-4.8,1l-3,0.6c-1.8,0.3-3.5,0.6-5.2,0.9l-1.1,0.2c-1.7,0.3-3.5,0.6-5.1,0.8l-2,0.3
				c-1.3,0.2-2.7,0.4-4,0.5l-2.1,0.3c-1.3,0.2-2.5,0.3-3.7,0.4c-0.7,0.1-1.3,0.1-2,0.2c-1.4,0.1-2.7,0.2-4,0.3l-1.4,0.1
				c-1.8,0.1-3.5,0.2-5.1,0.3l-1,0c-1.3,0-2.6,0.1-3.8,0.1l-0.5,0c-0.7,0-1.3,0-2,0l-1.1,0c-1.2,0-2.4-0.1-3.6-0.2l-2.3-0.2
				c-0.4,0-0.7-0.1-1.1-0.1c-0.4,0-0.7-0.1-1.1-0.1c-0.8-0.1-1.5-0.2-2.2-0.3l-1-0.1c-0.9-0.1-1.7-0.3-2.5-0.5l-0.4-0.1
				c-1-0.2-1.9-0.4-2.7-0.7c-0.2,0-0.3-0.1-0.5-0.1l-0.2-0.1c-0.6-0.2-1.2-0.4-1.8-0.6c-0.3-0.1-0.5-0.2-0.8-0.3
				c-0.6-0.2-1.1-0.4-1.6-0.7c-0.3-0.2-0.5-0.2-0.7-0.3c-0.6-0.3-1.2-0.6-1.8-1l-0.2-0.1c-0.6-0.4-1.2-0.8-1.7-1.2
				c-0.1-0.1-0.2-0.2-0.3-0.3l-0.2-0.1c-0.4-0.3-0.7-0.7-1.1-1c-0.2-0.2-0.3-0.3-0.4-0.5c-0.3-0.4-0.6-0.7-0.8-1.1
				c-0.2-0.3-0.3-0.4-0.3-0.5c-0.4-0.6-0.6-1.2-0.9-1.7c-1.6-4-1-8.7,1.8-14.1c0.8-1.5,1.7-3,2.8-4.6c1.1-1.6,2.3-3.2,3.7-4.8
				C127.8,282.7,128.2,282.2,128.7,281.6z"/>
		</g>
	</g>
</g>
</svg>
