<svg id="Capa_1" data-name="Capa 1" xmlns="http://www.w3.org/2000/svg" viewBox="0 0 428 442.44"><defs><style>.cls-1{fill:#ffce55;}.cls-2{fill:#5dc6d1;}.cls-3{fill:#fff;}</style></defs><path class="cls-1" d="M133,265.61c59-99.62,164.19-49.3,164.19-49.3C209.29,111.09,64.93,169,48.66,280.86S163.54,456.74,163.54,456.74,74.08,365.24,133,265.61Z" transform="translate(-42 -34.78)"/><path class="cls-1" d="M216.41,340.84c-34.57-79.29,28.46-120,28.46-120-152.49,9.15-140.29,203.33-31.51,246s201.29-61,201.29-61C343.71,444.54,251,420.14,216.41,340.84Z" transform="translate(-42 -34.78)"/><path class="cls-1" d="M469.88,264.94s-25.75,54.22-76.58,72.52S265.88,359.14,226.57,301.2c0,0-1.69,70.14,70.66,92.51S474,394.39,469.88,264.94Z" transform="translate(-42 -34.78)"/><path class="cls-2" d="M428.2,146.67s1.36-32.19-20.33-56.08-56.25-22.54-56.25-22.54S339.76,38.23,306,35.18s-50.32,20-50.32,20-12.2-17.84-44.4-20.27S158.8,68.05,158.8,68.05,124.91,64,103.22,90.59s-22,56.08-22,56.08-27.45,10.84-35.59,43.71,0,38.52,0,38.52S57.14,206,63.24,202.75c0,0,2.94-26.27,32.16-40.94l9.29,7.7,7.24-8.74-8.8-7.29c-1.31-12.49-.91-35.83,17-50.19,17-13.62,39-14.69,51.65-13.91l13.42,11.38A19.79,19.79,0,0,0,188,119.45l-14.18,19.86,9.23,6.59,14-19.64A20,20,0,1,0,192,91.6L177.53,79.35c2.75-8.26,10.28-22.16,30.07-24.52,28.46-3.38,36.59,24.4,36.59,24.4v75.23l21.69,9v-1l32.87-33.3a19.4,19.4,0,0,0,10.19,1.16l20.93,38.54a20,20,0,0,0-5.55,8.94h-33.7v11.35h33.7a20,20,0,0,0,8.3,11.09l-16.69,56.57-.57,0a19.89,19.89,0,0,0-11.79,3.87l-33.5-21.18L264,249.08l32.66,20.65a20,20,0,0,0-1.31,7.07c0,.24,0,.47,0,.71l-47.64,13.26,3,10.93L299,288.28a19.94,19.94,0,0,0,29.82,3.26l50.05,29.78.88-1.48,0,.16s2.55.85,17.8-6.77,16.43-11,20.16-31.86c0,0,48.8-18.13,49.47-71S428.2,146.67,428.2,146.67Zm-18.33,15.4-15.52,46.85a19.89,19.89,0,0,0-10.06,2.91L361.46,192.2a19.85,19.85,0,0,0,2-8.71,21.23,21.23,0,0,0-.18-2.54ZM378.73,94.82c24.3,11.49,28.4,38.11,29,48.88L326,111c0-.14,0-.28,0-.42a19.86,19.86,0,0,0-1.48-7.53l13.23-13.4C347.4,87.46,361.84,86.84,378.73,94.82ZM306,90.59a20,20,0,0,0-16.29,31.56l-23.87,24.18V79.23s3.73-22.36,31.35-24.4C319.7,53.18,329.49,71.94,332.37,79l-15,15.15A19.89,19.89,0,0,0,306,90.59Zm13.21,35a19.86,19.86,0,0,0,3.31-3.72l78.7,31.48-42.54,17.24a20,20,0,0,0-15.24-7.06,19.56,19.56,0,0,0-3.44.32Zm7.47,134.8,16.78-56.87a20,20,0,0,0,10.31-2.9l22.85,19.65a19.79,19.79,0,0,0-2,8.66,20.48,20.48,0,0,0,.39,3.94l-45.5,29.88A19.47,19.47,0,0,0,326.72,260.36Zm70.65,14.23c.45,4.27-4.29,29.29-13.61,36.43l-49.07-29.19a19.76,19.76,0,0,0,.25-9.07l45.45-29.86a19.93,19.93,0,0,0,12.94,5.93l7.36,18.49C398.9,269.39,397.1,272.12,397.37,274.59Zm13.48-12.43-6.32-15.89a20,20,0,0,0,.75-34.28l15.36-46.34c11,6.56,23.85,19.3,25.18,43.26C447.8,244.32,420.12,258.44,410.85,262.16Z" transform="translate(-42 -34.78)"/><circle class="cls-3" cx="352.49" cy="193.71" r="22.04"/><path class="cls-3" d="M343.22,161a22,22,0,0,0-17.46,8.59l-13.85-7.37L310,131.54a22,22,0,1,0-25.9-25.94l-58.78-1.79a22.05,22.05,0,1,0-5.36,17.7l84.91,45.21,5.58,88.22a22.06,22.06,0,1,0,7.32-.31l-5.29-83.86,9.85,5.25A22,22,0,1,0,343.22,161ZM223.84,115.29a21.42,21.42,0,0,0,1.25-4.15l58.77,1.79a22.05,22.05,0,0,0,18.78,18.82l1.67,26.37Z" transform="translate(-42 -34.78)"/></svg>