<?xml version="1.0" encoding="utf-8"?>
<!-- Generator: Adobe Illustrator 25.4.1, SVG Export Plug-In . SVG Version: 6.00 Build 0)  -->
<svg version="1.1" id="Capa_1" xmlns="http://www.w3.org/2000/svg" xmlns:xlink="http://www.w3.org/1999/xlink" x="0px" y="0px"
	 viewBox="0 0 679.7 181" style="enable-background:new 0 0 679.7 181;" xml:space="preserve">
<style type="text/css">
	.st0{fill:#2F387C;}
	.st1{fill:#FFCE55;}
	.st2{fill:#5DC6D1;}
</style>
<g>
	<g>
		<g>
			<path class="st0" d="M37.3,94.5c24.1-40.8,67.2-20.2,67.2-20.2C68.5,31.2,9.4,54.9,2.7,100.7c-6.7,45.8,47,72,47,72
				S13.1,135.2,37.3,94.5z"/>
			<path class="st0" d="M71.4,125.2C57.2,92.8,83,76.1,83,76.1c-62.4,3.7-57.4,83.2-12.9,100.7c44.5,17.5,82.4-25,82.4-25
				C123.5,167.7,85.5,157.7,71.4,125.2z"/>
			<path class="st0" d="M175.1,94.2c0,0-10.5,22.2-31.3,29.7c-20.8,7.5-52.1,8.9-68.2-14.8c0,0-0.7,28.7,28.9,37.9
				C134,156,176.7,147.1,175.1,94.2z"/>
		</g>
		<path class="st1" d="M158,45.8c0,0,0.6-13.2-8.3-22.9c-8.9-9.8-23-9.2-23-9.2S121.8,1.4,108,0.2C94.2-1.1,87.4,8.3,87.4,8.3
			S82.5,1,69.3,0S47.8,13.6,47.8,13.6s-13.9-1.7-22.7,9.2c-8.9,10.9-9,22.9-9,22.9S4.8,50.2,1.5,63.7s0,15.8,0,15.8S6.2,70,8.7,68.7
			c0,0,1.2-10.8,13.2-16.8l3.8,3.2l3-3.6l-3.6-3c-0.5-5.1-0.4-14.7,7-20.5c7-5.6,16-6,21.1-5.7l5.5,4.7c-0.3,0.9-0.5,1.8-0.5,2.8
			c0,1.8,0.6,3.5,1.6,4.9l-5.8,8.1l3.8,2.7l5.7-8c0.9,0.3,1.8,0.5,2.8,0.5c4.5,0,8.2-3.7,8.2-8.2c0-4.5-3.7-8.2-8.2-8.2
			c-1.9,0-3.6,0.6-4.9,1.7l-5.9-5c1.1-3.4,4.2-9.1,12.3-10c11.6-1.4,15,10,15,10V49l8.9,3.7v-0.4l13.5-13.6c0.9,0.4,1.9,0.6,3,0.6
			c0.4,0,0.8,0,1.2-0.1l8.6,15.8c-1.1,1-1.9,2.2-2.3,3.7h-13.8v4.6h13.8c0.6,1.9,1.8,3.5,3.4,4.5l-6.8,23.1c-0.1,0-0.2,0-0.2,0
			c-1.8,0-3.5,0.6-4.8,1.6l-13.7-8.7l-2.5,3.9l13.4,8.5c-0.3,0.9-0.5,1.9-0.5,2.9c0,0.1,0,0.2,0,0.3l-19.5,5.4l1.2,4.5l19.7-5.5
			c1.5,2.1,3.9,3.5,6.7,3.5c2.1,0,4.1-0.8,5.5-2.1l20.5,12.2l0.4-0.6l0,0.1c0,0,1,0.3,7.3-2.8c6.2-3.1,6.7-4.5,8.3-13
			c0,0,20-7.4,20.2-29C174.3,50.2,158,45.8,158,45.8z M144.2,71.3c-1.5,0-2.9,0.5-4.1,1.2l-9.3-8c0.5-1.1,0.8-2.3,0.8-3.6
			c0-0.4,0-0.7-0.1-1l19.1-7.7L144.2,71.3z M91.6,18.2c0,0,1.5-9.2,12.8-10c9.2-0.7,13.2,7,14.4,9.9l-6.1,6.2
			c-1.3-0.9-2.9-1.5-4.7-1.5c-4.5,0-8.2,3.7-8.2,8.2c0,1.8,0.6,3.4,1.5,4.7l-9.8,9.9V18.2z M121,22.5c3.9-0.9,9.8-1.1,16.8,2.1
			c9.9,4.7,11.6,15.6,11.9,20l-33.5-13.4c0-0.1,0-0.1,0-0.2c0-1.1-0.2-2.1-0.6-3.1L121,22.5z M113.4,37.1c0.5-0.5,1-1,1.4-1.5
			L147,48.5l-17.4,7.1c-1.5-1.8-3.7-2.9-6.2-2.9c-0.5,0-1,0-1.4,0.1L113.4,37.1z M123.4,69c1.5,0,3-0.4,4.2-1.2l9.3,8
			c-0.5,1.1-0.8,2.3-0.8,3.5c0,0.6,0.1,1.1,0.2,1.6l-18.6,12.2c-0.4-0.4-0.7-0.7-1.2-1L123.4,69z M145.4,98.1
			c0.2,1.7-1.8,12-5.6,14.9l-20.1-11.9c0.2-0.7,0.3-1.3,0.3-2.1c0-0.6-0.1-1.1-0.2-1.7l18.6-12.2c1.4,1.4,3.2,2.3,5.3,2.4l3,7.6
			C146,96,145.3,97.1,145.4,98.1z M150.9,93l-2.6-6.5c2.5-1.4,4.1-4.1,4.1-7.1c0-2.9-1.5-5.5-3.8-6.9l6.3-19
			c4.5,2.7,9.8,7.9,10.3,17.7C166,85.7,154.7,91.5,150.9,93z"/>
		<g>
			<path class="st0" d="M252.5,96.1l-5-11.7h-22.6l-5,11.7H207l23.3-54H242l23.3,54H252.5z M236.2,58.2l-6.8,15.7h13.5L236.2,58.2z"
				/>
			<path class="st0" d="M292.2,52.5v43.6h-12.1V52.5h-15.3V42.1h42.7v10.4H292.2z"/>
			<path class="st0" d="M317.9,96.1v-54h12.1v43.3h23v10.7H317.9z"/>
			<path class="st0" d="M401.9,96.1l-5-11.7h-22.6l-5,11.7h-12.8l23.3-54h11.7l23.3,54H401.9z M385.6,58.2l-6.8,15.7h13.5
				L385.6,58.2z"/>
			<path class="st0" d="M460.4,42.1h12.1v54h-12.1l-25.7-33.8v33.8h-12.1v-54h11.3l26.5,34.8V42.1z"/>
			<path class="st0" d="M510.2,52.5v43.6h-12.1V52.5h-15.3V42.1h42.7v10.4H510.2z"/>
			<path class="st0" d="M535.9,42.1H548v54h-12.1V42.1z"/>
			<path class="st0" d="M616.5,68.7c0,5.6-1.4,10.7-4.3,15.1c-2.9,4.5-6.7,7.8-11.6,10c0.5,0.8,1.2,1.4,2.2,2c1,0.5,2,0.8,3.1,0.8
				c1.1,0,2.1-0.2,3.2-0.5c1-0.3,1.9-0.7,2.5-1.2c1.3-1.1,2.3-2.1,2.9-3.2l6.3,7.5c-4.4,4.7-10,7-16.6,7c-3.1,0-6.1-0.8-9.1-2.5
				c-3-1.7-5.3-4.1-6.9-7.2c-8,0-14.7-2.7-20.2-8c-5.5-5.3-8.2-12-8.2-19.9c0-7.9,2.7-14.6,8.2-19.9c5.5-5.3,12.2-8,20.2-8
				s14.7,2.7,20.2,8C613.8,54.2,616.5,60.8,616.5,68.7z M604.2,68.8c0-4.8-1.5-8.9-4.6-12.3c-3.1-3.4-6.9-5.1-11.4-5.1
				c-4.5,0-8.3,1.7-11.4,5.1c-3.1,3.4-4.6,7.5-4.6,12.3c0,4.8,1.5,8.9,4.6,12.3c3.1,3.4,6.9,5.1,11.4,5.1c4.5,0,8.3-1.7,11.4-5.1
				C602.7,77.7,604.2,73.6,604.2,68.8z"/>
			<path class="st0" d="M666.9,96.1l-5-11.7h-22.6l-5,11.7h-12.8l23.3-54h11.7l23.3,54H666.9z M650.6,58.2l-6.8,15.7h13.5
				L650.6,58.2z"/>
		</g>
		<g>
			<g>
				<path class="st2" d="M220.9,141.1c2.9,0,5.3-1.2,7.2-3.5l3.8,3.9c-3,3.4-6.6,5.1-10.7,5.1c-4.1,0-7.5-1.3-10.2-3.9
					c-2.7-2.6-4-5.9-4-9.9c0-4,1.4-7.3,4.1-9.9c2.7-2.7,6-4,10-4c4.4,0,8.1,1.7,11,5l-3.7,4.2c-1.9-2.3-4.2-3.5-7-3.5
					c-2.2,0-4.2,0.7-5.8,2.2c-1.6,1.5-2.4,3.4-2.4,5.9c0,2.5,0.8,4.5,2.3,6C216.9,140.4,218.8,141.1,220.9,141.1z"/>
				<path class="st2" d="M259.7,142.7c-2.7,2.6-6,4-10,4c-4,0-7.3-1.3-10-4c-2.7-2.6-4.1-5.9-4.1-9.9c0-3.9,1.4-7.2,4.1-9.9
					c2.7-2.6,6-4,10-4c4,0,7.3,1.3,10,4c2.7,2.6,4.1,5.9,4.1,9.9C263.8,136.8,262.5,140.1,259.7,142.7z M257.7,132.9
					c0-2.4-0.8-4.4-2.3-6.1c-1.5-1.7-3.4-2.5-5.6-2.5c-2.2,0-4.1,0.8-5.6,2.5c-1.5,1.7-2.3,3.7-2.3,6.1c0,2.4,0.8,4.4,2.3,6.1
					c1.5,1.7,3.4,2.5,5.6,2.5c2.2,0,4.1-0.8,5.6-2.5C257,137.3,257.7,135.3,257.7,132.9z"/>
				<path class="st2" d="M287.4,132.8h6v9.5c-2.7,3-6.3,4.4-11,4.4c-3.9,0-7.2-1.3-9.9-3.9c-2.7-2.6-4-5.9-4-9.9
					c0-4,1.4-7.3,4.1-9.9c2.7-2.7,6-4,9.8-4c3.8,0,7.2,1.3,10,3.8l-3.1,4.5c-1.2-1-2.3-1.8-3.3-2.2c-1-0.4-2.1-0.6-3.3-0.6
					c-2.3,0-4.2,0.8-5.7,2.3c-1.6,1.5-2.3,3.6-2.3,6.1c0,2.5,0.7,4.5,2.2,6.1c1.5,1.5,3.3,2.3,5.3,2.3c2.1,0,3.8-0.4,5.2-1.2V132.8z
					"/>
				<path class="st2" d="M318.6,119.7h6v26.8h-6l-12.7-16.8v16.8h-6v-26.8h5.6l13.1,17.2V119.7z"/>
				<path class="st2" d="M332.4,119.7h6v26.8h-6V119.7z"/>
				<path class="st2" d="M357.5,124.8v21.6h-6v-21.6h-7.6v-5.2H365v5.2H357.5z"/>
				<path class="st2" d="M370.6,119.7h6v26.8h-6V119.7z"/>
				<path class="st2" d="M394.2,136.7l6.8-17h6.5l-10.8,26.8h-5.1l-10.8-26.8h6.5L394.2,136.7z"/>
				<path class="st2" d="M431.1,119.7v5.3h-13.3v5.5h12v5.1h-12v5.5h13.7v5.3h-19.7v-26.8H431.1z"/>
				<path class="st2" d="M455.6,125c-0.6,0.5-0.9,1.1-0.9,1.9c0,0.8,0.4,1.4,1.1,1.9c0.7,0.5,2.3,1,4.9,1.6c2.5,0.6,4.5,1.6,5.9,2.8
					c1.4,1.3,2.1,3.1,2.1,5.5c0,2.4-0.9,4.3-2.7,5.8c-1.8,1.5-4.2,2.2-7.1,2.2c-4.2,0-8.1-1.6-11.4-4.7l3.6-4.4
					c2.9,2.5,5.5,3.8,8,3.8c1.1,0,2-0.2,2.6-0.7c0.6-0.5,0.9-1.1,0.9-1.9c0-0.8-0.3-1.4-1-1.9s-2-1-3.9-1.4
					c-3.1-0.7-5.4-1.7-6.8-2.9c-1.4-1.2-2.2-3-2.2-5.6c0-2.5,0.9-4.5,2.7-5.9c1.8-1.4,4.1-2.1,6.8-2.1c1.8,0,3.6,0.3,5.4,0.9
					c1.8,0.6,3.3,1.5,4.7,2.6l-3,4.4c-2.3-1.8-4.7-2.6-7.2-2.6C457,124.3,456.2,124.5,455.6,125z"/>
				<path class="st2" d="M482,139.5c1,1.2,2.3,1.9,4,1.9c1.7,0,3-0.6,4-1.9c1-1.2,1.5-2.9,1.5-5.1v-14.8h6v15c0,3.9-1.1,6.9-3.2,8.9
					c-2.1,2.1-4.9,3.1-8.2,3.1s-6.1-1-8.2-3.1c-2.2-2.1-3.2-5.1-3.2-8.9v-15h6v14.8C480.5,136.6,481,138.3,482,139.5z"/>
				<path class="st2" d="M504.9,119.7h6v26.8h-6V119.7z"/>
				<path class="st2" d="M529.9,124.8v21.6h-6v-21.6h-7.6v-5.2h21.1v5.2H529.9z"/>
				<path class="st2" d="M562.3,119.7v5.3H549v5.5h12v5.1h-12v5.5h13.7v5.3h-19.7v-26.8H562.3z"/>
			</g>
		</g>
	</g>
	<circle class="st2" cx="111.7" cy="98.9" r="9"/>
	<circle class="st2" cx="144.2" cy="79.3" r="9"/>
	<circle class="st2" cx="123.3" cy="60.6" r="9"/>
	<circle class="st2" cx="107.9" cy="30.7" r="9"/>
	<circle class="st2" cx="66.1" cy="29.5" r="9"/>
	
		<rect x="85.8" y="9.5" transform="matrix(3.033357e-02 -0.9995 0.9995 3.033357e-02 54.533 116.4544)" class="st2" width="3" height="41.2"/>
	<rect x="95" y="16" transform="matrix(0.4699 -0.8827 0.8827 0.4699 10.1892 109.7355)" class="st2" width="3" height="60.7"/>
	
		<rect x="108.3" y="35.6" transform="matrix(0.998 -6.307270e-02 6.307270e-02 0.998 -3.935 7.0571)" class="st2" width="3" height="60.6"/>
</g>
</svg>
